<?xml version="1.0" encoding="utf-8"?>
<!-- Generator: Adobe Illustrator 27.8.1, SVG Export Plug-In . SVG Version: 6.00 Build 0)  -->
<svg version="1.1" id="Layer_1" xmlns="http://www.w3.org/2000/svg" xmlns:xlink="http://www.w3.org/1999/xlink" x="0px" y="0px"
	 viewBox="0 0 625.2 516.3" style="enable-background:new 0 0 625.2 516.3;" xml:space="preserve">
<style type="text/css">
	.st0{fill:#FFFFFF;}
	.st1{fill:#F95812;}
</style>
<g>
	<g>
		<path class="st0" d="M610,152.3l-6.3-6.3c3.4-3.5,5.5-8.3,5.5-13.5V103c0-5.1-1.9-9.9-5.5-13.6c6.2-3.3,10.5-9.9,10.5-17.4V42.6
			c0-5.4-2.1-10.4-6-14.2l-13.2-13.2c-3.8-3.9-8.8-6-14.2-6h-92.2c-7.7,0-14.4,4.4-17.6,10.8l-4.8-4.8c-3.8-3.9-8.8-6-14.2-6h-36.8
			c-7.9,0-15,4.7-18.1,12l-9,21.2l-3.4-7.7c-1.1-2.6-2.7-4.8-4.8-6.7c-0.1-0.1-0.2-0.2-0.3-0.3c-0.1-0.1-0.2-0.2-0.3-0.3
			c-0.1-0.1-0.2-0.2-0.3-0.3c-0.1-0.1-0.2-0.2-0.3-0.3c-0.1-0.1-0.2-0.2-0.3-0.3c-0.1-0.1-0.2-0.2-0.3-0.3c-0.1-0.1-0.2-0.2-0.3-0.3
			c-0.1-0.1-0.2-0.2-0.3-0.3c-0.1-0.1-0.2-0.2-0.3-0.3c-0.1-0.1-0.2-0.2-0.3-0.3c-0.1-0.1-0.2-0.2-0.3-0.3c-0.1-0.1-0.2-0.2-0.3-0.3
			c-0.1-0.1-0.2-0.2-0.3-0.3c-0.1-0.1-0.2-0.2-0.3-0.3c-0.1-0.1-0.2-0.2-0.3-0.3c-0.1-0.1-0.2-0.2-0.3-0.3c-0.1-0.1-0.2-0.2-0.3-0.3
			c-0.1-0.1-0.2-0.2-0.3-0.3c-0.1-0.1-0.2-0.2-0.3-0.3c-0.1-0.1-0.2-0.2-0.3-0.3c-0.1-0.1-0.2-0.2-0.3-0.3c-0.1-0.1-0.2-0.2-0.3-0.3
			c-0.1-0.1-0.2-0.2-0.3-0.3c-0.1-0.1-0.2-0.2-0.3-0.3c-0.1-0.1-0.2-0.2-0.3-0.3c-0.1-0.1-0.2-0.2-0.3-0.3c-0.1-0.1-0.2-0.2-0.3-0.3
			c-0.1-0.1-0.2-0.2-0.3-0.3c-0.1-0.1-0.2-0.2-0.3-0.3c-0.1-0.1-0.2-0.2-0.4-0.4l-3.4-3.4c-3.7-3.5-8.5-5.4-13.6-5.4H317
			c-10.9,0-19.7,8.8-19.7,19.7v63.1l-14.8-54.6c-0.9-3.3-2.6-6.3-4.9-8.6l-10-10c-0.2-0.2-0.3-0.3-0.5-0.5c-0.1-0.1-0.2-0.2-0.2-0.2
			l-2.6-2.6c-3.7-4.1-9-6.4-14.5-6.4H208c-8.8,0-16.6,5.9-19,14.4l-19.7,70c-0.4-0.5-0.9-1-1.4-1.5l-5.4-5.4
			c2.9-3.5,4.5-7.9,4.5-12.6V44.2c0-5.6-2.4-10.9-6.5-14.6l-13.3-13.3c-2.7-2.5-5.9-4.2-9.5-5c-5.7-1.2-11.8-2.2-18-2.8
			c-6.3-0.7-13-1-19.8-1c-12.4,0-24,1.4-34.3,4.1c-11.7,3-21.9,8.3-30.3,15.5C26.6,34.4,20,44.2,15.5,56.1
			c-4.2,11-6.3,24.3-6.3,39.5v20c0,15.3,2.2,28.6,6.4,39.6c3.5,9,8.2,16.8,14,23.2c0.2,0.2,0.4,0.5,0.5,0.5c0.1,0.2,0.3,0.3,0.5,0.5
			c0.1,0.1,0.2,0.2,0.2,0.2c0.1,0.2,0.3,0.3,0.4,0.5c0.1,0.1,0.2,0.2,0.2,0.2c0.1,0.2,0.3,0.3,0.4,0.5c0.1,0.1,0.2,0.2,0.2,0.2
			c0.1,0.2,0.3,0.3,0.5,0.5c0.1,0.1,0.2,0.2,0.3,0.3c0.1,0.1,0.2,0.2,0.3,0.3c0.1,0.1,0.2,0.2,0.2,0.2c0.1,0.2,0.3,0.3,0.4,0.5
			c0.1,0.1,0.2,0.2,0.2,0.2c0.1,0.2,0.3,0.3,0.4,0.5c0.1,0.1,0.2,0.2,0.2,0.2c0.1,0.2,0.3,0.3,0.4,0.5c0.1,0.1,0.2,0.2,0.2,0.2
			c0.1,0.2,0.3,0.3,0.5,0.5c0.1,0.1,0.2,0.2,0.2,0.2c0.1,0.2,0.3,0.3,0.5,0.5c0.1,0.1,0.2,0.2,0.2,0.2c0.1,0.2,0.3,0.3,0.4,0.5
			c0.1,0.1,0.2,0.2,0.2,0.2c0.1,0.2,0.3,0.3,0.4,0.5c0.1,0.1,0.2,0.2,0.2,0.2c0.1,0.2,0.3,0.3,0.4,0.5c0.1,0.1,0.2,0.2,0.2,0.2
			c0.1,0.2,0.3,0.3,0.4,0.5c0.1,0.1,0.2,0.2,0.2,0.2c0.1,0.2,0.3,0.3,0.4,0.5c0.1,0.1,0.2,0.2,0.2,0.2c0.1,0.2,0.3,0.3,0.4,0.5
			c0.1,0.1,0.2,0.2,0.2,0.2c0.1,0.2,0.3,0.3,0.4,0.5c0.1,0.1,0.2,0.2,0.2,0.2c0.1,0.2,0.3,0.3,0.4,0.5c0.1,0.1,0.2,0.2,0.2,0.2
			c0.1,0.2,0.3,0.3,0.5,0.5c0.1,0.1,0.2,0.2,0.2,0.2c0.1,0.1,0.3,0.3,0.4,0.4c1.9,2.1,3.9,4.1,6,5.9c8.4,7.2,18.6,12.4,30.3,15.5
			c7.7,2,16,3.3,24.8,3.8c-0.1,0.1-0.2,0.2-0.3,0.3c-10,10.1-18.4,21.6-25,34.3c-14.6,28.1-40.5,85-49.1,149.5
			c-0.2,1.5-0.4,3-0.6,4.5l0,0.3c-4.2,36.1-0.7,63.1,10.6,80.4c10.8,16.5,25.8,19.9,30.7,21c0,0,0.4,0.1,0.4,0.1
			c2,0.6,4.2,1,6.4,1.2c1,0.1,2.1,0.1,3.2,0.1c2.6,0,5.2-0.2,7.9-0.7c19.1-3.5,40.8-18.7,64.6-45.4c14.4-16.1,29.8-36.7,45.8-61.2
			c6.6,7,16.5,13.7,30.9,16.4c27.4,5.1,46.4-18,52.6-42l3.7-6.2c2.3-4,2.1-8.9-0.6-12.7l-1.2-1.7l2.6-3.9c1.4-2.1,2.1-4.7,2-7.2
			l-0.1-0.9c-0.4-7.3-0.3-17.2,0.6-22.5l12.8-10.9c2-1.7,3.4-4.1,3.9-6.8l3.1-17l7.8-4.3l5.5,20.3c0.2,0.6,0.4,1.2,0.6,1.7
			c0.2,0.5,0.4,1,0.8,1.7c0.3,0.5,0.6,1,1,1.4l-5.7,27.5c-2.7,3.4-4.7,7.1-5.9,10.9c-1.7,5.4-1.8,10.9-0.4,16.2
			c0.9,3.2,2.3,6.2,4.2,8.9l-2.6,5.6c-2.2,4.6-1.7,10.1,1.3,14.2l12,17c0.9,1.3,2,2.4,3.2,3.2c0.9,0.7,23,16.5,48.7,10l1-0.3
			c16.5-4.5,26.8-14.3,31.5-20c11.8-2.9,20.8-4.5,24-4.8c2,1.1,6.3,4.8,16.1,20.6c3.7,5.9,7.8,13.2,12.4,21.6l0.8,1.5
			c2.1,4,4.2,7.7,6.1,11.2c19,35,31.3,54.9,62,57.8c1.1,0.1,2.3,0.2,3.5,0.2c4.5,0.2,9.2-0.3,13.7-1.5c8.5-2.3,16.7-7.2,23.8-14.1
			c17.9-17.4,27.7-46.3,26.9-79.3c-0.2-9.2-1.3-18.8-3.1-28.6c-4.1-21.8-16.4-77.6-43-126.3c-9.3-17.1-19.3-31.4-30-42.9h70.6
			c10.9,0,19.7-8.8,19.7-19.7v-29.4C616,161.1,613.8,156.1,610,152.3z"/>
		<path class="st0" d="M237.6,439.3c-2-2.1-4.4-3.6-7.2-4.5c-2.8-0.9-6-1.4-9.5-1.4c-3.4,0-6.6,0.5-9.4,1.4
			c-2.8,0.9-5.3,2.5-7.3,4.5c-2,2.1-3.6,4.8-4.7,8.1c-1.1,3.3-1.7,7.4-1.7,12.2v6.9c0,4.8,0.5,8.9,1.6,12.2c1.1,3.3,2.6,6.1,4.7,8.2
			c2,2.1,4.5,3.6,7.3,4.5c2.8,0.9,6,1.4,9.5,1.4c3.6,0,6.8-0.5,9.6-1.4c2.8-0.9,5.3-2.5,7.2-4.5c2-2.1,3.5-4.8,4.6-8.2
			c1.1-3.3,1.6-7.4,1.6-12.2v-6.9c0-4.8-0.5-8.9-1.6-12.2C241.2,444.1,239.6,441.4,237.6,439.3z M228.4,466.5c0,2.6-0.1,4.9-0.3,6.9
			c-0.2,1.9-0.5,3.6-1.1,4.8c-0.5,1.3-1.3,2.3-2.3,2.9c-1,0.7-2.3,1-3.9,1c-1.6,0-2.8-0.3-3.8-1c-1-0.7-1.7-1.6-2.3-2.9
			c-0.5-1.3-0.9-2.9-1.1-4.8c-0.2-1.9-0.3-4.2-0.3-6.9v-6.7c0-2.6,0.1-4.9,0.3-6.9c0.2-1.9,0.6-3.6,1.1-4.8c0.5-1.3,1.3-2.3,2.3-2.9
			c1-0.7,2.3-1,3.9-1c3.1,0,5.1,1.3,6,3.9c0.9,2.6,1.4,6.5,1.4,11.8V466.5z"/>
		<polygon class="st0" points="286.1,471.9 276.6,434.6 259.7,434.6 277.5,491.8 293.9,491.8 311.8,434.6 295.3,434.6 		"/>
		<polygon class="st0" points="345.2,468.1 363.9,468.1 363.9,457.1 345.2,457.1 345.2,445.6 365.8,445.6 365.8,434.6 330.7,434.6 
			330.7,491.8 366.5,491.8 366.5,480.8 345.2,480.8 		"/>
		<path class="st0" d="M409.1,434.6h-21.9v57.2h14.3v-21.2h5.6c1.9,0,3.1,0.6,3.6,1.8c0.5,1.2,0.8,2.6,0.8,4.1v15.3h14.3v-16.2
			c0-2.2-0.4-4.3-1.1-6.1c-0.7-1.8-2-3.3-3.7-4.4c2.3-1.4,3.9-3.2,4.9-5.4c1-2.3,1.5-4.9,1.5-8C427.4,440.3,421.3,434.6,409.1,434.6
			z M411,458.8c-0.8,1.1-2,1.6-3.4,1.6h-6.1v-15h5.8c1.6,0,2.8,0.5,3.7,1.6c0.9,1.1,1.3,3.1,1.3,6
			C412.3,455.8,411.9,457.7,411,458.8z"/>
	</g>
	<g>
		<polygon class="st1" points="229.3,133.8 252.8,133.8 241.2,82.4 		"/>
		<path class="st1" d="M604.3,158.1c-0.1-0.1-0.2-0.2-0.3-0.3c-0.1-0.1-0.2-0.2-0.3-0.3c-0.1-0.1-0.2-0.2-0.3-0.3
			c-0.1-0.1-0.2-0.2-0.3-0.3c-0.1-0.1-0.2-0.2-0.3-0.3c-0.1-0.1-0.2-0.2-0.3-0.3c0,0,0,0,0,0c-0.1-0.1-0.2-0.2-0.3-0.3
			c-0.1-0.1-0.2-0.2-0.3-0.3c-0.1-0.1-0.2-0.2-0.3-0.3c-0.1-0.1-0.2-0.2-0.3-0.3c-0.1-0.1-0.2-0.2-0.3-0.3c-0.1-0.1-0.2-0.2-0.3-0.3
			c-0.1-0.1-0.2-0.2-0.3-0.3c-0.1-0.1-0.2-0.2-0.3-0.3c-0.1-0.1-0.2-0.2-0.3-0.3c-0.1-0.1-0.2-0.2-0.3-0.3c-0.1-0.1-0.2-0.2-0.3-0.3
			c-0.1-0.1-0.2-0.2-0.3-0.3c-0.1-0.1-0.2-0.2-0.3-0.3c-0.1-0.1-0.2-0.2-0.3-0.3c-0.1-0.1-0.2-0.2-0.3-0.3c-0.1-0.1-0.2-0.2-0.3-0.3
			c-0.1-0.1-0.2-0.2-0.3-0.3c-0.1-0.1-0.2-0.2-0.3-0.3c-0.1-0.1-0.2-0.2-0.3-0.3c-0.1-0.1-0.2-0.2-0.3-0.3c-0.1-0.1-0.2-0.2-0.3-0.3
			c-0.1-0.1-0.2-0.2-0.3-0.3c-0.1-0.1-0.2-0.2-0.3-0.3c-0.1-0.1-0.2-0.2-0.3-0.3c-0.1-0.1-0.2-0.2-0.3-0.3c-0.1-0.1-0.2-0.2-0.3-0.3
			c-0.1-0.1-0.2-0.2-0.3-0.3c-0.1-0.1-0.2-0.2-0.3-0.3c-0.1-0.1-0.2-0.2-0.3-0.3c-0.1-0.1-0.2-0.2-0.3-0.3c-0.1-0.1-0.2-0.2-0.3-0.3
			c-0.1-0.1-0.2-0.2-0.3-0.3c-0.1-0.1-0.2-0.2-0.3-0.3c-0.1-0.1-0.2-0.2-0.3-0.3c-0.2-0.2-0.5-0.5-0.8-0.7c6-0.4,10.8-5.4,10.8-11.6
			V103c0-3.3-1.4-6.3-3.6-8.4c-0.1-0.1-0.2-0.2-0.3-0.3c-0.1-0.1-0.2-0.2-0.3-0.3c-0.1-0.1-0.2-0.2-0.3-0.3
			c-0.1-0.1-0.2-0.2-0.3-0.3c-0.1-0.1-0.2-0.2-0.3-0.3c-0.1-0.1-0.2-0.2-0.3-0.3c-0.1-0.1-0.2-0.2-0.3-0.3c-0.1-0.1-0.2-0.2-0.3-0.3
			c-0.1-0.1-0.2-0.2-0.3-0.3c-0.1-0.1-0.2-0.2-0.3-0.3c-0.1-0.1-0.2-0.2-0.3-0.3c-0.1-0.1-0.2-0.2-0.3-0.3c-0.1-0.1-0.2-0.2-0.3-0.3
			c-0.1-0.1-0.2-0.2-0.3-0.3c-0.1-0.1-0.2-0.2-0.3-0.3c-0.1-0.1-0.2-0.2-0.3-0.3c-0.1-0.1-0.2-0.2-0.3-0.3c-0.1-0.1-0.2-0.2-0.3-0.3
			c-0.1-0.1-0.2-0.2-0.3-0.3c-0.1-0.1-0.2-0.2-0.3-0.3c-0.1-0.1-0.2-0.2-0.3-0.3c-0.1-0.1-0.2-0.2-0.3-0.3c-0.1-0.1-0.2-0.2-0.3-0.3
			c-0.1-0.1-0.2-0.2-0.3-0.3c-0.1-0.1-0.2-0.2-0.3-0.3c-0.1-0.1-0.2-0.2-0.3-0.3c-0.1-0.1-0.2-0.2-0.3-0.3c-0.1-0.1-0.2-0.2-0.3-0.3
			c-0.1-0.1-0.2-0.2-0.3-0.3c-0.1-0.1-0.2-0.2-0.3-0.3c-0.1-0.1-0.2-0.2-0.3-0.3c-0.1-0.1-0.2-0.2-0.3-0.3c-0.1-0.1-0.2-0.2-0.3-0.3
			h7.9c6.4,0,11.7-5.2,11.7-11.7V42.6c0-3.3-1.4-6.3-3.6-8.4c-0.1-0.1-0.2-0.2-0.3-0.3c-0.1-0.1-0.2-0.2-0.3-0.3
			c-0.1-0.1-0.2-0.2-0.3-0.3c-0.1-0.1-0.2-0.2-0.3-0.3c-0.1-0.1-0.2-0.2-0.3-0.3c-0.1-0.1-0.2-0.2-0.3-0.3c-0.1-0.1-0.2-0.2-0.3-0.3
			c-0.1-0.1-0.2-0.2-0.3-0.3c-0.1-0.1-0.2-0.2-0.3-0.3c-0.1-0.1-0.2-0.2-0.3-0.3c-0.1-0.1-0.2-0.2-0.3-0.3c-0.1-0.1-0.2-0.2-0.3-0.3
			c-0.1-0.1-0.2-0.2-0.3-0.3c0,0,0,0,0,0c-0.1-0.1-0.2-0.2-0.3-0.3c-0.1-0.1-0.2-0.2-0.3-0.3c-0.1-0.1-0.2-0.2-0.3-0.3
			c-0.1-0.1-0.2-0.2-0.3-0.3c0,0,0,0,0,0c-0.1-0.1-0.2-0.2-0.3-0.3c-0.1-0.1-0.2-0.2-0.3-0.3c-0.1-0.1-0.2-0.2-0.3-0.3
			c-0.1-0.1-0.2-0.2-0.3-0.3c-0.1-0.1-0.2-0.2-0.3-0.3c-0.1-0.1-0.2-0.2-0.3-0.3c-0.1-0.1-0.2-0.2-0.3-0.3c-0.1-0.1-0.2-0.2-0.3-0.3
			c-0.1-0.1-0.2-0.2-0.3-0.3c0,0,0,0,0,0c-0.1-0.1-0.2-0.2-0.3-0.3c-0.1-0.1-0.2-0.2-0.3-0.3c-0.1-0.1-0.2-0.2-0.3-0.3
			c-0.1-0.1-0.2-0.2-0.3-0.3c-0.1-0.1-0.2-0.2-0.3-0.3c-0.1-0.1-0.2-0.2-0.3-0.3c-0.1-0.1-0.2-0.2-0.3-0.3c-0.1-0.1-0.2-0.2-0.3-0.3
			c-0.1-0.1-0.2-0.2-0.3-0.3c-0.1-0.1-0.2-0.2-0.3-0.3c-0.1-0.1-0.2-0.2-0.3-0.3c-0.1-0.1-0.2-0.2-0.3-0.3c-0.1-0.1-0.2-0.2-0.3-0.3
			c-0.1-0.1-0.2-0.2-0.3-0.3c-2.1-2.2-5.1-3.6-8.4-3.6h-92.2c-6.4,0-11.7,5.2-11.7,11.7v10.7c-0.6-2.1-1.7-4-3.2-5.4
			c-0.1-0.1-0.2-0.2-0.3-0.3c-0.1-0.1-0.2-0.2-0.3-0.3c-0.1-0.1-0.2-0.2-0.3-0.3c-0.1-0.1-0.2-0.2-0.3-0.3c-0.1-0.1-0.2-0.2-0.3-0.3
			c0,0,0,0,0,0c-0.1-0.1-0.2-0.2-0.3-0.3c-0.1-0.1-0.2-0.2-0.3-0.3c-0.1-0.1-0.2-0.2-0.3-0.3c-0.1-0.1-0.2-0.2-0.3-0.3
			c-0.1-0.1-0.2-0.2-0.3-0.3c-0.1-0.1-0.2-0.2-0.3-0.3c-0.1-0.1-0.2-0.2-0.3-0.3c-0.1-0.1-0.2-0.2-0.3-0.3c-0.1-0.1-0.2-0.2-0.3-0.3
			c-0.1-0.1-0.2-0.2-0.3-0.3c-0.1-0.1-0.2-0.2-0.3-0.3c-0.1-0.1-0.2-0.2-0.3-0.3c-0.1-0.1-0.2-0.2-0.3-0.3c-0.1-0.1-0.2-0.2-0.3-0.3
			c-0.1-0.1-0.2-0.2-0.3-0.3c-0.1-0.1-0.2-0.2-0.3-0.3c-0.1-0.1-0.2-0.2-0.3-0.3c-0.1-0.1-0.2-0.2-0.3-0.3c-0.1-0.1-0.2-0.2-0.3-0.3
			c-0.1-0.1-0.2-0.2-0.3-0.3c-0.1-0.1-0.2-0.2-0.3-0.3c-0.1-0.1-0.2-0.2-0.3-0.3c-0.1-0.1-0.2-0.2-0.3-0.3c-0.1-0.1-0.2-0.2-0.3-0.3
			c-0.1-0.1-0.2-0.2-0.3-0.3c-0.1-0.1-0.2-0.2-0.3-0.3c-0.1-0.1-0.2-0.2-0.3-0.3c-0.1-0.1-0.2-0.2-0.3-0.3c-0.1-0.1-0.2-0.2-0.3-0.3
			c-0.1-0.1-0.2-0.2-0.3-0.3c-0.1-0.1-0.2-0.2-0.3-0.3c-0.1-0.1-0.2-0.2-0.3-0.3c-0.1-0.1-0.2-0.2-0.3-0.3c-0.1-0.1-0.2-0.2-0.3-0.3
			c-0.1-0.1-0.2-0.2-0.3-0.3c-2.1-2.2-5.1-3.6-8.4-3.6h-36.8c-4.7,0-8.9,2.8-10.7,7.1l-16.3,38.3l-10.9-24.7c-0.7-1.6-1.7-3-3-4.1
			c-0.1-0.1-0.2-0.2-0.3-0.3c-0.1-0.1-0.2-0.2-0.4-0.4c-0.1-0.1-0.2-0.2-0.3-0.3c-0.1-0.1-0.2-0.2-0.4-0.4c-0.1-0.1-0.2-0.2-0.3-0.3
			c-0.1-0.1-0.2-0.2-0.4-0.4c-0.1-0.1-0.2-0.2-0.3-0.3c-0.1-0.1-0.2-0.2-0.4-0.4c-0.1-0.1-0.2-0.2-0.3-0.3c-0.1-0.1-0.2-0.2-0.4-0.4
			c-0.1-0.1-0.2-0.2-0.3-0.3c-0.1-0.1-0.2-0.2-0.4-0.4c-0.1-0.1-0.2-0.2-0.3-0.3c-0.1-0.1-0.2-0.2-0.4-0.4c-0.1-0.1-0.2-0.2-0.3-0.3
			c-0.1-0.1-0.2-0.2-0.4-0.4c-0.1-0.1-0.2-0.2-0.3-0.3c-0.1-0.1-0.2-0.2-0.4-0.4c-0.1-0.1-0.2-0.2-0.3-0.3c-0.1-0.1-0.2-0.2-0.4-0.4
			c-0.1-0.1-0.2-0.2-0.3-0.3c-0.1-0.1-0.2-0.2-0.4-0.4c-0.1-0.1-0.2-0.2-0.3-0.3c-0.1-0.1-0.2-0.2-0.4-0.4c-0.1-0.1-0.2-0.2-0.3-0.3
			c-0.1-0.1-0.2-0.2-0.4-0.4c-0.1-0.1-0.2-0.2-0.3-0.3c-0.1-0.1-0.2-0.2-0.4-0.4c-0.1-0.1-0.2-0.2-0.3-0.3c-0.1-0.1-0.2-0.2-0.4-0.4
			c-0.1-0.1-0.2-0.2-0.3-0.3c-0.1-0.1-0.2-0.2-0.4-0.4c-0.1-0.1-0.2-0.2-0.3-0.3c-0.1-0.1-0.2-0.2-0.4-0.4c-0.1-0.1-0.2-0.2-0.3-0.3
			c-0.1-0.1-0.2-0.2-0.4-0.4c-0.1-0.1-0.2-0.2-0.3-0.3c-0.1-0.1-0.2-0.2-0.4-0.4c-0.1-0.1-0.2-0.2-0.3-0.3c-0.1-0.1-0.2-0.2-0.4-0.4
			c-2.1-2-5-3.2-8-3.2H317c-6.4,0-11.7,5.2-11.7,11.7v123.5L274.8,39.5c-0.5-2-1.6-3.8-3-5.2c-0.1-0.1-0.2-0.2-0.3-0.3
			c-0.1-0.1-0.2-0.2-0.3-0.3c-0.1-0.1-0.2-0.2-0.3-0.3c-0.1-0.1-0.2-0.2-0.3-0.3c-0.1-0.1-0.2-0.2-0.3-0.3c-0.1-0.1-0.2-0.2-0.3-0.3
			c-0.1-0.1-0.2-0.2-0.3-0.3c-0.1-0.1-0.2-0.2-0.3-0.3c-0.1-0.1-0.2-0.2-0.3-0.3c-0.1-0.1-0.2-0.2-0.3-0.3c-0.1-0.1-0.2-0.2-0.3-0.3
			c-0.1-0.1-0.2-0.2-0.3-0.3c-0.1-0.1-0.2-0.2-0.3-0.3c-0.1-0.1-0.2-0.2-0.3-0.3c-0.1-0.1-0.2-0.2-0.3-0.3c-0.1-0.1-0.2-0.2-0.3-0.3
			c-0.1-0.1-0.2-0.2-0.3-0.3c-0.1-0.1-0.2-0.2-0.3-0.3c-0.1-0.1-0.2-0.2-0.3-0.3c-0.1-0.1-0.2-0.2-0.3-0.3c-0.1-0.1-0.2-0.2-0.3-0.3
			c-0.1-0.1-0.2-0.2-0.3-0.3c-0.1-0.1-0.2-0.2-0.3-0.3c-0.1-0.1-0.2-0.2-0.3-0.3c-0.1-0.1-0.2-0.2-0.3-0.3c-0.1-0.1-0.2-0.2-0.3-0.3
			c-0.1-0.1-0.2-0.2-0.3-0.3c-0.1-0.1-0.2-0.2-0.3-0.3c-0.1-0.1-0.2-0.2-0.3-0.3c-0.1-0.1-0.2-0.2-0.3-0.3c-0.1-0.1-0.2-0.2-0.3-0.3
			c-0.1-0.1-0.2-0.2-0.3-0.3c-0.1-0.1-0.2-0.2-0.3-0.3c-0.1-0.1-0.2-0.2-0.3-0.3c-0.1-0.1-0.2-0.2-0.3-0.3c-0.1-0.1-0.2-0.2-0.3-0.3
			c-0.1-0.1-0.2-0.2-0.3-0.3c-0.1-0.1-0.2-0.2-0.3-0.3c-0.1-0.1-0.2-0.2-0.3-0.3c-0.1-0.1-0.2-0.2-0.3-0.3c-2.2-2.3-5.2-3.8-8.6-3.8
			H208c-5.2,0-9.8,3.5-11.2,8.5l-30.9,109.5v-29c0-3.3-1.4-6.3-3.6-8.4c-0.1-0.1-0.2-0.2-0.3-0.3c-0.1-0.1-0.2-0.2-0.3-0.3
			c-0.1-0.1-0.2-0.2-0.3-0.3c-0.1-0.1-0.2-0.2-0.3-0.3c-0.1-0.1-0.2-0.2-0.3-0.3c-0.1-0.1-0.2-0.2-0.3-0.3c-0.1-0.1-0.2-0.2-0.3-0.3
			c-0.1-0.1-0.2-0.2-0.3-0.3c-0.1-0.1-0.2-0.2-0.3-0.3c-0.1-0.1-0.2-0.2-0.3-0.3c-0.1-0.1-0.2-0.2-0.3-0.3c-0.1-0.1-0.2-0.2-0.3-0.3
			c-0.1-0.1-0.2-0.2-0.3-0.3c-0.1-0.1-0.2-0.2-0.3-0.3c-0.1-0.1-0.2-0.2-0.3-0.3c-0.1-0.1-0.2-0.2-0.3-0.3c-0.1-0.1-0.2-0.2-0.3-0.3
			c-0.1-0.1-0.2-0.2-0.3-0.3c-0.1-0.1-0.2-0.2-0.3-0.3c-0.1-0.1-0.2-0.2-0.3-0.3c-0.1-0.1-0.2-0.2-0.3-0.3c-0.1-0.1-0.2-0.2-0.3-0.3
			c-0.1-0.1-0.2-0.2-0.3-0.3c-0.1-0.1-0.2-0.2-0.3-0.3c-0.1-0.1-0.2-0.2-0.3-0.3c-0.1-0.1-0.2-0.2-0.3-0.3c-0.1-0.1-0.2-0.2-0.3-0.3
			c-0.1-0.1-0.2-0.2-0.3-0.3c-0.1-0.1-0.2-0.2-0.3-0.3c-0.1-0.1-0.2-0.2-0.3-0.3c-0.1-0.1-0.2-0.2-0.3-0.3c-0.1-0.1-0.2-0.2-0.3-0.3
			c-0.1-0.1-0.2-0.2-0.3-0.3c-0.1-0.1-0.2-0.2-0.3-0.3c-0.1-0.1-0.2-0.2-0.3-0.3c-0.1-0.1-0.2-0.2-0.3-0.3c-0.1-0.1-0.2-0.2-0.3-0.3
			c0,0,0,0-0.1-0.1c1.7-0.4,3.2-1.1,4.6-2.2c2.8-2.2,4.5-5.6,4.5-9.2V44.2c0-3.5-1.5-6.6-4-8.8c-0.1-0.1-0.2-0.2-0.3-0.3
			c-0.1-0.1-0.2-0.2-0.4-0.4c-0.1-0.1-0.2-0.2-0.3-0.3c-0.1-0.1-0.2-0.2-0.4-0.4c-0.1-0.1-0.2-0.2-0.3-0.3c-0.1-0.1-0.2-0.2-0.4-0.4
			c-0.1-0.1-0.2-0.2-0.3-0.3c-0.1-0.1-0.2-0.2-0.4-0.4c-0.1-0.1-0.2-0.2-0.3-0.3c-0.1-0.1-0.2-0.2-0.4-0.4c-0.1-0.1-0.2-0.2-0.3-0.3
			c-0.1-0.1-0.2-0.2-0.4-0.4c-0.1-0.1-0.2-0.2-0.3-0.3c-0.1-0.1-0.2-0.2-0.4-0.4c-0.1-0.1-0.2-0.2-0.3-0.3c-0.1-0.1-0.2-0.2-0.4-0.4
			c-0.1-0.1-0.2-0.2-0.3-0.3c-0.1-0.1-0.2-0.2-0.4-0.4c-0.1-0.1-0.2-0.2-0.3-0.3c-0.1-0.1-0.2-0.2-0.4-0.4c-0.1-0.1-0.2-0.2-0.3-0.3
			c-0.1-0.1-0.2-0.2-0.4-0.4c-0.1-0.1-0.2-0.2-0.3-0.3c-0.1-0.1-0.2-0.2-0.4-0.4c-0.1-0.1-0.2-0.2-0.3-0.3c-0.1-0.1-0.2-0.2-0.4-0.4
			c-0.1-0.1-0.2-0.2-0.3-0.3c-0.1-0.1-0.2-0.2-0.4-0.4c-0.1-0.1-0.2-0.2-0.3-0.3c-0.1-0.1-0.2-0.2-0.4-0.4c-0.1-0.1-0.2-0.2-0.3-0.3
			c-0.1-0.1-0.2-0.2-0.4-0.4c-0.1-0.1-0.2-0.2-0.3-0.3c-0.1-0.1-0.2-0.2-0.4-0.4c-0.1-0.1-0.2-0.2-0.3-0.3c-0.1-0.1-0.2-0.2-0.4-0.4
			c-0.1-0.1-0.2-0.2-0.3-0.3c-0.1-0.1-0.2-0.2-0.4-0.4c-0.1-0.1-0.2-0.2-0.3-0.3c-0.1-0.1-0.2-0.2-0.4-0.4c-1.5-1.4-3.4-2.5-5.6-2.9
			c-5.4-1.2-11.2-2.1-17.2-2.7c-6.1-0.7-12.4-1-18.9-1c-11.7,0-22.6,1.3-32.3,3.8C57.2,22,48.1,26.6,40.6,33.1
			C32.9,39.6,27,48.3,23,58.9c-3.8,10.1-5.7,22.4-5.7,36.6v20c0,14.3,2,26.6,5.9,36.7c3.1,8.1,7.4,15.1,12.6,20.8
			c0.1,0.1,0.2,0.2,0.3,0.3c0.1,0.1,0.2,0.2,0.4,0.4c0.1,0.1,0.2,0.2,0.3,0.3c0.1,0.1,0.2,0.2,0.4,0.4c0.1,0.1,0.2,0.2,0.3,0.3
			c0.1,0.1,0.2,0.2,0.4,0.4c0.1,0.1,0.2,0.2,0.3,0.3c0.1,0.1,0.2,0.2,0.4,0.4c0.1,0.1,0.2,0.2,0.3,0.3c0.1,0.1,0.2,0.2,0.4,0.4
			c0.1,0.1,0.2,0.2,0.3,0.3c0.1,0.1,0.2,0.2,0.4,0.4c0.1,0.1,0.2,0.2,0.3,0.3c0.1,0.1,0.2,0.2,0.4,0.4c0.1,0.1,0.2,0.2,0.3,0.3
			c0.1,0.1,0.2,0.2,0.4,0.4c0.1,0.1,0.2,0.2,0.3,0.3c0.1,0.1,0.2,0.2,0.4,0.4c0.1,0.1,0.2,0.2,0.3,0.3c0.1,0.1,0.2,0.2,0.4,0.4
			c0.1,0.1,0.2,0.2,0.3,0.3c0.1,0.1,0.2,0.2,0.4,0.4c0.1,0.1,0.2,0.2,0.3,0.3c0.1,0.1,0.2,0.2,0.4,0.4c0.1,0.1,0.2,0.2,0.3,0.3
			c0.1,0.1,0.2,0.2,0.4,0.4c0.1,0.1,0.2,0.2,0.3,0.3c0.1,0.1,0.2,0.2,0.4,0.4c0.1,0.1,0.2,0.2,0.3,0.3c0.1,0.1,0.2,0.2,0.4,0.4
			c0.1,0.1,0.2,0.2,0.3,0.3c0.1,0.1,0.2,0.2,0.4,0.4c0.1,0.1,0.2,0.2,0.3,0.3c0.1,0.1,0.2,0.2,0.4,0.4c0.1,0.1,0.2,0.2,0.3,0.3
			c0.1,0.1,0.2,0.2,0.4,0.4c0.1,0.1,0.2,0.2,0.3,0.3c0.1,0.1,0.2,0.2,0.4,0.4c0.1,0.1,0.2,0.2,0.3,0.3c0.1,0.1,0.2,0.2,0.4,0.4
			c1.7,1.9,3.5,3.7,5.4,5.3c7.5,6.4,16.6,11.1,27.1,13.8c9.3,2.4,19.7,3.7,30.9,3.8c5.4-4.8,10.6-8.8,15.5-12.1
			c-4.5,0.3-9.2,0.4-14.2,0.4c-10.8,0-20.5-1.1-29.3-3.4c-8.8-2.3-16.3-6.1-22.4-11.4c-6.2-5.3-11-12.3-14.4-21.1
			c-3.4-8.8-5.1-19.6-5.1-32.5v-20c0-12.9,1.7-23.7,5-32.5c3.3-8.8,8.1-15.9,14.3-21.1c6.2-5.3,13.7-9.1,22.4-11.4
			c8.8-2.3,18.6-3.4,29.3-3.4c6.2,0,12.1,0.3,17.7,0.9c5.6,0.6,11,1.5,16,2.5v18.2v11.7c-4.9-1.2-9.5-2.1-13.7-2.6
			c-4.2-0.5-9.1-0.8-14.6-0.8c-5.2,0-10.1,0.3-14.5,1c-4.4,0.7-8.3,2.3-11.5,4.7c-3.2,2.5-5.7,5.9-7.5,10.5
			c-1.7,4.5-2.6,10.7-2.6,18.5v27.8c0,7.8,0.9,14,2.6,18.5c1.7,4.5,4.1,8,7.1,10.5c3,2.5,6.4,4,10.2,4.7c3.8,0.7,7.8,1,11.9,1
			c0.8,0,1.5,0,2.3,0c0.7,0,1.9-0.1,3.7-0.2V156v-21.4h-15.7v-28.3h49.2v70.4l0.6-0.3c1.7-0.9,3.6-1.4,5.6-1.4h0.7
			c2,0,4.4,0.1,7.2,0.4c2-2.2,4.8-3.6,7.8-3.8c0.9-0.1,4.5-0.3,9.3-0.3l36.3-128.6h41.8l41.6,153.3h-37.8l-7.6-33.8h-37.1l-3.2,13.8
			c3.8,1.1,7.7,2.3,11.2,3.4l1.3-5.5h7.9l2.1,9.2c0.8,0.3,1.5,0.5,2,0.7c3.7,1.2,6.4,4.1,7.6,7.6l0.7,0.2c3.1,0.7,5.8,2.8,7.4,5.6
			l5.9,10.4l0.4,0.1c0.5,0.1,0.9,0.1,1.4,0.1h37.8c3.6,0,7.1-1.7,9.3-4.6c1.1-1.4,1.8-3.1,2.2-4.8c0,0,0.1,0.1,0.1,0.1
			c0.1,0.1,0.2,0.2,0.4,0.4c0.1,0.1,0.2,0.2,0.3,0.3c0,0,0,0,0,0c0.1,0.1,0.2,0.2,0.3,0.3c0,0,0,0,0,0c0.1,0.1,0.2,0.2,0.3,0.3
			c0.1,0.1,0.2,0.2,0.4,0.4c0.1,0.1,0.2,0.2,0.3,0.3c0.1,0.1,0.2,0.2,0.4,0.4c0.1,0.1,0.2,0.2,0.3,0.3c0.1,0.1,0.2,0.2,0.4,0.4
			c0.1,0.1,0.2,0.2,0.3,0.3c0.1,0.1,0.2,0.2,0.4,0.4c0.1,0.1,0.2,0.2,0.3,0.3c0.1,0.1,0.2,0.2,0.4,0.4c0.1,0.1,0.2,0.2,0.3,0.3
			c0.1,0.1,0.2,0.2,0.4,0.4c0.1,0.1,0.2,0.2,0.3,0.3c0.1,0.1,0.2,0.2,0.4,0.4c2.1,2.2,5.1,3.6,8.4,3.6h35.6c1.2,0,2.4-0.2,3.6-0.6
			l6-7.8c0.6-0.8,1.3-1.4,2-2.1c0-0.4,0.1-0.8,0.1-1.3v-31.4c0,0,0.1,0.1,0.1,0.1c0.1,0.1,0.2,0.2,0.3,0.3c0.1,0.1,0.2,0.2,0.3,0.3
			c0.1,0.1,0.2,0.2,0.3,0.3c0.1,0.1,0.2,0.2,0.3,0.3c0.1,0.1,0.2,0.2,0.3,0.3c2.2,2.4,5.3,3.8,8.6,3.8h14.3v11.1
			c7-2.6,15.8-5.3,25.3-6.8v-62.7l-20.2,46.6h-19.5l-22.1-48.7V152v32.2v11.7h-35.6v-23.3V42.6v0h35.9l31.6,71.9l30.6-71.9h36.8
			v138.1c12.8,2.1,25,7,36.6,14.6v-22.8V42.6v0h92.2V72h-54.2v31h49.2v29.4h-49.2v34h56.1v29.4H503c5,3.4,9.9,7.3,14.7,11.7h78.6
			c6.4,0,11.7-5.2,11.7-11.7v-29.4C607.9,163.2,606.6,160.2,604.3,158.1z"/>
		<path class="st1" d="M241.4,279.4c1.1,0.5,2.3,0.6,3.4,0.4c1.9-0.4,3.7-1.7,4.5-3.6l9.9-24c1.3-3.1-0.2-6.6-3.3-7.9
			c-3.1-1.3-6.6,0.2-7.9,3.3l-9.9,24C236.9,274.6,238.3,278.1,241.4,279.4z M246.7,263.7c2.3,0.5-0.2,9.1-3.1,7.7
			C240.7,269.8,244.1,263.1,246.7,263.7z"/>
		<path class="st1" d="M136.8,308.8c0.2,0,0.4-0.1,0.5-0.2l15.4-9.1c0.4-0.2,0.6-0.6,0.8-1c0.1-0.4,0-0.9-0.2-1.2l-9.9-16.7
			c-0.2-0.4-0.6-0.6-1-0.7l-19.1-5.5c-0.9-0.3-1.8,0.3-2,1.1l-7.3,25.2c-0.1,0.4-0.1,0.9,0.1,1.2c0.2,0.4,0.6,0.7,1,0.8l20.9,6
			C136.2,308.9,136.5,308.9,136.8,308.8z M117.6,300.1l3.1-10.7l0.5,0.1c-0.6,5.3,4.6,11.4,13.2,15l-0.5,0.3L117.6,300.1z"/>
		<path class="st1" d="M156.1,295.6c0.4,0.6,1,0.9,1.7,0.8c0.2,0,0.4-0.1,0.5-0.2l16.6-9.9c0.4-0.2,0.6-0.6,0.7-1l5.5-19.1
			c0.3-0.9-0.2-1.8-1.1-2l-25.2-7.3c-0.4-0.1-0.9-0.1-1.2,0.1c-0.4,0.2-0.7,0.6-0.8,1l-6,20.8c-0.1,0.4-0.1,0.9,0.2,1.3L156.1,295.6
			z M155.8,278c2.2,2.8,6.5,3.4,9,3.6c0.5,0,0.6,0.7,0.2,0.9l-5.1,2.7c-0.9,0.5-2.1,0.1-2.6-0.8l-4.8-8.3
			C152.6,276.1,152.6,273.9,155.8,278z"/>
		<path class="st1" d="M132.6,334.3l25.2,7.3c0.2,0.1,0.5,0.1,0.7,0c0.2,0,0.3-0.1,0.5-0.2c0.4-0.2,0.7-0.6,0.8-1l6-20.9
			c0.1-0.4,0.1-0.9-0.2-1.3l-9.1-15.4c-0.5-0.8-1.5-1-2.2-0.6l-16.7,9.9c-0.4,0.2-0.6,0.6-0.7,1l-5.5,19.1
			C131.2,333.1,131.7,334,132.6,334.3z M138.1,321c1.1,0.5,2.5,1.5,2.8,3.2c0.6,3,4.7,8.4,10,8.9c1.1,1.1,0.4,2.1-0.5,2.8l-15.4-4.4
			L138.1,321z"/>
		<path class="st1" d="M198.5,296.6c-0.2-0.4-0.6-0.7-1-0.8l-20.8-6c-0.4-0.1-0.9-0.1-1.3,0.2L160,299c-0.4,0.2-0.6,0.6-0.8,1
			c-0.1,0.4,0,0.9,0.2,1.2l9.9,16.6c0.2,0.4,0.6,0.6,1,0.7l19.1,5.5c0.2,0.1,0.5,0.1,0.7,0c0.2,0,0.3-0.1,0.5-0.2
			c0.4-0.2,0.7-0.6,0.8-1l7.3-25.2C198.7,297.4,198.7,296.9,198.5,296.6z M188.6,320.6l-16.3-4.7l-0.6-0.6c6.2,1,11.2,1.2,14-0.6
			c2.7-1.8,6.1-5.8,6.3-7.6c0-0.3,0.2-0.3,0.6-0.1L188.6,320.6z"/>
		<path class="st1" d="M167.7,357.8c-1.1,0.1-2.1,0.2-3.2,0.3l-3.2,0.2l-3.2-0.1c-8.4-0.2-16.7-2.1-24.3-5.5
			c-7.5-3.5-14.3-8.5-19.7-14.7c-5.5-6.1-9.7-13.4-12.2-21.2c-2.5-7.8-3.5-16.1-2.7-24.3c0.7-8.2,3.4-16.2,7.4-23.4
			c4.1-7.2,9.6-13.7,16.3-18.8c6.7-5.2,14.5-9,22.9-11.2c-8.7,0.8-17.2,3.9-24.7,8.6c-1.8,1.2-3.8,2.4-5.4,3.9l-2.6,2.1
			c-0.8,0.7-1.6,1.6-2.4,2.3c-0.8,0.8-1.6,1.6-2.4,2.4l-2.1,2.6c-1.5,1.7-2.7,3.6-3.9,5.5c-4.9,7.6-8,16.4-9.2,25.4
			c-1.1,9-0.2,18.3,2.6,27c2.9,8.7,7.6,16.7,13.8,23.3l1.2,1.3c0.4,0.4,0.8,0.8,1.2,1.2l2.5,2.3c0.8,0.8,1.7,1.4,2.7,2.1l2.7,2
			c0.9,0.7,1.9,1.2,2.9,1.8c1,0.6,1.9,1.2,2.9,1.7l3.1,1.4l1.5,0.7c0.5,0.2,1,0.5,1.6,0.6c8.4,3.3,17.5,4.7,26.4,4l3.3-0.3l3.3-0.6
			c1.1-0.2,2.2-0.4,3.3-0.6c1.1-0.2,2.1-0.6,3.2-0.9c4.2-1.3,8.3-3,12-5.2c-4.1,1.6-8.2,2.7-12.4,3.5
			C169.8,357.5,168.8,357.7,167.7,357.8z"/>
		<path class="st1" d="M591.7,386.2c-4-21.4-16.2-76.4-42.3-124.2c-26.6-48.7-58.7-74-95.6-75.2l-0.8-2.7c-0.5-1.7-1.9-2.9-3.7-3.1
			c-27-3.2-56.7,12.4-58,13.1c-1.1,0.6-1.9,1.7-2.2,2.9l-0.8,3.5l-2.7,0.6c-1.6,0.3-3,1.3-4,2.6l-7.6,9.8L327.8,226
			c-2.3,0.6-4.1,2.3-4.8,4.6l-0.6,1.7l-61.7-19l-7.3-12.9c-0.6-1.1-1.7-1.9-2.9-2.2l-1.3-0.3c-0.5-0.1-2.1-0.5-4.6-1.1l0.2-1.8
			c0.2-2.1-1.1-4-3.1-4.7c-0.2-0.1-16.4-5.5-29.5-9.2c-13.7-3.9-34.8-2.6-35.7-2.6c-2.2,0.1-3.9,1.8-4.2,3.9l0,0.3
			c-4.6-0.5-8.4-0.8-11.2-0.8l-0.7,0c-0.8,0-1.5,0.2-2.2,0.6l-0.6,0.3c-5.1,2.8-10.2,9.4-13.2,13.8c-10.4,3.8-22.3,12.4-35.3,25.7
			c-9.5,9.6-17.4,20.6-23.7,32.6C71,282.8,45.5,338.8,37,402.3c-0.2,1.5-0.4,2.9-0.5,4.3l0,0.4c-4,34.4-0.9,59.8,9.5,75.7
			c9.2,14.1,21.5,16.9,26.3,17.9c0.4,0.1,0.7,0.1,0.9,0.2c1.3,0.4,3,0.7,5,0.9c2.5,0.2,5.6,0.1,9.2-0.5
			c17.5-3.2,37.9-17.7,60.6-43.1c15.8-17.7,32.7-40.7,50.5-68.7c5.5,8.5,15.4,18.3,32.8,21.6c26.8,5,40.8-22.1,44.6-37.7l4.2-7.1
			c0.9-1.5,0.8-3.4-0.2-4.9l-4.1-5.7l5.4-8c0.6-0.8,0.8-1.8,0.8-2.8l-0.1-0.9c-0.5-8-0.4-21,1.3-26.8l14.7-12.5
			c0.8-0.7,1.3-1.6,1.5-2.6l3.8-20.3l18.7-10.2c0.3-0.2,0.5-0.4,0.8-0.6c-0.1,0.4-0.2,0.8-0.2,1.1c0,0.2,0,0.4,0,0.6
			c0,0.6,0.1,1.2,0.2,1.8l7.1,26.1c0.1,0.5,0.3,0.8,0.3,0.8c0.1,0.3,0.2,0.6,0.4,0.9c0.2,0.3,0.4,0.6,0.6,0.9
			c0.2,0.2,0.4,0.5,0.5,0.6l1.4,1.4l-6.9,32.9c-2.7,3.1-4.6,6.4-5.7,9.9c-1.3,4.1-1.4,8.2-0.3,12.1c1,3.6,3,6.9,5.8,9.7l-4.6,9.8
			c-1.1,2.3-0.8,5,0.6,7l12,16.9c0.5,0.6,1,1.2,1.6,1.6c0.8,0.6,20.3,14.5,42.7,8.9l1-0.3c16.4-4.5,25.8-14.8,29.4-19.4
			c14.3-3.6,26.6-5.8,29.4-5.7l0.2,0.1c2.8,1.1,7.6,2.9,20.6,24c3.7,6,8,13.4,12.6,22c2.4,4.5,4.7,8.7,6.9,12.6
			c18.7,34.3,29.2,51.5,56.4,54c1,0.1,2.1,0.2,3.2,0.2c3.8,0.2,7.7-0.3,11.5-1.3c7.3-2,14.5-6.3,20.7-12.3
			c16.5-16.1,25.5-43,24.7-74C594.4,404.7,593.4,395.5,591.7,386.2z M538.2,491.6c-15.8-0.8-24.7-6.4-34.9-20.9
			c-3.7-6.1-7.3-15.1-4.9-15.8c2.3-0.7,13.6,0.8,16.2,5.7c2.6,4.9,1,8.4,2.7,11.2c1.7,2.7,10.1,2.6,11.4,4c1.4,1.3,1.9,5.1,5.7,8.3
			c7.3,5.7,19.7,1.5,27.5-2.2C554.6,488.5,546.2,492,538.2,491.6z M538.5,446.6c-13.9,4-29.1,5.2-50.5-1.8c-0.5-0.8-0.9-1.7-1.4-2.5
			c-2.1-3.9-4.4-8.1-6.8-12.6c-4.7-8.7-9.1-16.3-12.9-22.4c-1.1-1.7-2.1-3.3-3.1-4.8c-0.2-0.4-0.3-0.9-0.6-1.2
			c-3.7-5.7-15.1-25.5-27.1-30.5c-12-5.1-23.9-0.7-23.9-0.7s-8.6-24-18.9-33.1c8.4,16.1,5.7,32-11.9,46.8
			c-16.6,14-37.9,7.9-50.3-2.9l1.8-3.9c9.4,8.2,33,15.2,49.7-8.2c-19.2,10.9-29.8,7.2-36.4,4.5c3.9,0.2,8.1-0.3,12.3-1.4
			c4.4-1.2,8.5-3.1,12-5.5c9-6.2,13.2-15.1,10.9-23.2c-3.2-11.7-18.3-17.5-34.3-13.1c-3.9,1.1-7.5,2.7-10.6,4.7l6.6-31.5
			c0.2-0.9-0.1-1.8-0.7-2.4l-2.7-2.7l6.8-13.2c0.4-0.7,0.4-1.5,0.1-2.2c-0.3-0.7-0.9-1.3-1.7-1.5l-10.2-3.1l-2.5-5.5l8.1-14.9
			c0.3-0.6,0.4-1.3,0.2-2c-0.2-0.7-0.7-1.2-1.3-1.6l-11.7-6.1l4.2-13l45.5-12.4c0,0,0,0,0,0l0,0c7.7-1.8,15.5-3.7,23.2-5.6
			c7.7-1.9,15.4-3.9,23.2-5.7c7.7-1.9,15.5-3.6,23.3-5.1l5.9-1.1l5.9-0.9c2-0.3,3.9-0.5,5.9-0.7c2-0.2,4-0.2,6-0.3
			c-2-0.2-4-0.4-6-0.5c-2,0-4-0.1-6,0c-2,0.1-4,0.2-6,0.3l-6,0.5c-8,0.8-16,1.9-23.9,3.3c-7.9,1.4-15.8,2.9-23.6,4.7
			c-4.7,1.1-9.3,2.2-13.9,3.5l3.5-4.5l62.9-13.9c92.2,0.7,127,172,130.7,191.6c1.7,8.8,2.6,17.5,2.8,25.9c0,1.1,0,2.1,0,3.1
			C573.6,430,552,442.7,538.5,446.6z M332.4,356.3c-0.1-0.4-0.2-0.8-0.2-1.1c6.6,5.1,20.9,7.1,35.1,2.9c-0.5,0.4-1,0.7-1.5,1.1
			c-2.7,1.9-6,3.4-9.4,4.3C345.3,366.6,334.3,363.3,332.4,356.3z M366.4,349.6c0,0-3.7-6.8-11.4-8.5c-4.6-1-10.5-0.4-16.1,2
			c2.9-2.2,6.5-4.1,10.5-5.2c4.5-1.2,9-1.4,12.9-0.7C371.5,339.5,366.4,349.6,366.4,349.6z M138.7,453.4
			c-38.7,0.8-82.4-21.3-92.8-40.3c0.2-1.8,0.4-3.5,0.6-5.4l0-0.4v0c0.1-1.2,0.3-2.5,0.5-3.7c8.3-62,33.2-116.7,47.3-143.9
			c5.8-11.2,13.2-21.3,22-30.2c12.7-12.8,24.2-21.1,33.4-23.9c3.9-0.1,7.8,0,11.7,0.2c4.1,0.2,8.2,0.5,12.3,0.9
			c4.1,0.4,8.2,0.9,12.3,1.5c4.1,0.6,8.2,1.4,12.2,2.4c-3.9-1.5-7.9-2.7-11.9-3.8c-4-1.1-8.1-2-12.2-2.9c-4.1-0.9-8.2-1.6-12.3-2.3
			c-2.6-0.4-5.2-0.8-7.8-1.1c2.3-3.1,5.4-6.9,7.9-8.6c18.8,0.3,73.7,13,83.6,15.3l-6.2,6.5c-2.6-0.4-5.3-0.7-7.9-1
			c-8.4-1-16.8-1.7-25.2-2.2c8.3,1.4,16.6,3,24.8,4.9c8,1.8,15.8,3.9,23.6,6.3l63.1,19.4l-0.1,0.7c-2.8,2.5-6.8,6.4-9.3,10.5
			l-22.7,9.9l2.3,12.8l-18.1,16.2l2.4,8.7l-2.3,1.3l-11.2,33.7c-4.7-8.4-14.4-13.3-24.4-11.5c-5.4,1-10.2,3.8-13.7,8
			c-4.4,5.3-6.3,12.2-5,19.1c2.3,12.6,14.4,21,27,18.7c2.9-0.5,5.7-1.6,8.2-3.2l0.5-0.3c2.8-1.9,5.1-4.3,6.8-7
			c-5.2,13.6-22,22.7-38.9,15.5c12.3,8.9,33.4,9.5,49.2-9.7c-3.3,8.7-13,26.3-35.8,24.7c-30.2-2.1-33.7-31.3-33-42.9
			c0,0-7.3,13.3-4.1,28.7l-3,5c-18.4,29.3-35.9,53.3-52.1,71.4C139.9,452.1,139.3,452.7,138.7,453.4z M75.9,491.2
			c-0.4-0.1-1-0.2-1.6-0.4c-4.2-1-13-2.9-20-13.6c-6.4-9.8-9.6-24.3-9.6-43.3c6.2,5.3,9.9,9.1,11,12.4c1.2,3.8-1.5,10.9,1,16.9
			s6.2,8,9,9.7c2.8,1.7,1.3,5.2,6.1,8.1c3.9,2.3,18.4,9.4,37.7-0.8C90.5,493.4,79.6,492.3,75.9,491.2z M247.8,341.1
			c-3.1-4.6-8.9-7.3-13.8-7c5.5-2,17.3,0.8,19.8,7.6c2.5,6.8-3.8,11-3.8,11S250.8,345.7,247.8,341.1z M243.8,363.3
			c-0.7,0.2-1.4,0.4-2.1,0.5c-9.6,1.8-18.9-4.7-20.7-14.3c-0.7-3.8-0.1-7.7,1.6-11.1C223.1,347.9,228,361.4,243.8,363.3z
			 M325.4,257.7l3,1.6l-4.3,8L325.4,257.7z"/>
		<path class="st1" d="M372.8,248.8c-0.3-3.2-3.1-5.5-6.3-5.2c-3.2,0.3-5.5,3.1-5.2,6.3l2.2,24.9c0.3,3.2,3.1,5.5,6.3,5.2
			c1.1-0.1,2.2-0.5,3-1.2c1.5-1.2,2.4-3,2.2-5.1L372.8,248.8z M368.1,272.1c-3.1,0-3.2-7.2-0.7-7.9
			C369.6,263.6,371.2,272.1,368.1,272.1z"/>
		<path class="st1" d="M388.1,301.5c-1.3-6.6-1.7-13.4-1.1-20.1c0.6-6.8,2.2-13.5,4.4-20.4c-4.6,5.6-7.7,12.4-9.3,19.6
			c-1.6,7.2-1.7,14.8-0.2,22.1c1.4,7.3,4.4,14.3,8.6,20.4c4.2,6,9.7,11.2,16.1,14.6c-4.7-5.4-8.8-11.1-11.9-17.1
			C391.6,314.5,389.4,308.1,388.1,301.5z"/>
		<path class="st1" d="M501.1,262.4l-1.8-3.1c-1.1-2.1-2.6-4-3.9-5.9c-0.6-1-1.5-1.8-2.2-2.8c-0.8-0.9-1.5-1.8-2.3-2.7l-2.5-2.4
			l-1.3-1.2c-0.4-0.4-0.9-0.7-1.4-1.1c-7.2-6-15.7-10.3-24.7-12.4c-9-2-18.4-2.1-27.2,0.1c9-0.8,18,0.1,26.3,2.8
			c1.1,0.3,2.1,0.7,3.1,1.1c1,0.4,2,0.8,3,1.2l2.9,1.5l1.5,0.7c0.5,0.3,0.9,0.6,1.4,0.9l2.8,1.7c0.9,0.6,1.8,1.3,2.6,1.9l1.3,1
			c0.4,0.3,0.9,0.6,1.3,1l2.4,2.2c6.4,5.8,11.3,13.1,14.6,21c0.9,1.9,1.5,4,2.1,6.1c0.2,0.5,0.3,1,0.5,1.5l0.4,1.6
			c0.3,1,0.4,2.1,0.6,3.1c0.7,4.2,1,8.5,0.8,12.8c-0.7,17.1-9.2,33.7-23,44.2c-3.4,2.7-7.1,4.9-11.1,6.8c-3.9,1.9-8.1,3.3-12.4,4.3
			c-8.6,2.1-17.6,2.2-26.5,0.5c8.5,3,17.9,3.8,27.1,2.5c4.6-0.7,9.1-1.9,13.4-3.6c4.4-1.7,8.5-3.9,12.3-6.6
			c7.7-5.3,14.1-12.6,18.7-20.8c4.6-8.3,7.2-17.6,7.6-27.1c0.4-9.5-1.5-19-5.3-27.6L501.1,262.4z"/>
		<path class="st1" d="M432.6,280.5c8.2-2.3,13.1-10.8,10.9-19c-2.3-8.2-10.8-13.1-19-10.9c-8.2,2.3-13.1,10.8-10.9,19
			C415.8,277.9,424.3,282.8,432.6,280.5z M436.9,268.1c-1.9,3.8-10.5,7-16.9,4.9c-1.1-1.3-2-2.8-2.4-4.5c-0.3-1.2-0.4-2.3-0.4-3.4
			C422.9,268.8,431.9,272.7,436.9,268.1z"/>
		<path class="st1" d="M470.6,288.2c8.2-2.3,13.1-10.8,10.9-19c-2.3-8.2-10.8-13.1-19-10.9s-13.1,10.8-10.9,19
			C453.8,285.6,462.4,290.5,470.6,288.2z M474.9,275.8c-1.9,3.8-10.5,7-16.9,4.9c-1.1-1.3-2-2.8-2.4-4.5c-0.3-1.2-0.4-2.3-0.4-3.4
			C460.9,276.5,469.9,280.4,474.9,275.8z"/>
		<path class="st1" d="M433,300.3c-2.3-8.2-10.8-13.1-19-10.9c-8.2,2.3-13.1,10.8-10.9,19c2.3,8.2,10.8,13.1,19,10.9
			S435.2,308.6,433,300.3z M407.1,307.4c-0.3-1.2-0.4-2.3-0.4-3.4c5.7,3.7,14.7,7.6,19.7,3c-1.9,3.8-10.5,7-16.9,4.9
			C408.5,310.6,407.6,309.1,407.1,307.4z"/>
		<path class="st1" d="M441.1,316.1c2.3,8.2,10.8,13.1,19,10.9c8.2-2.3,13.1-10.8,10.9-19c-2.3-8.2-10.8-13.1-19-10.9
			C443.8,299.4,438.9,307.9,441.1,316.1z M445.2,315c-0.3-1.2-0.4-2.3-0.4-3.4c5.7,3.7,14.7,7.6,19.7,3c-1.9,3.8-10.5,7-16.9,4.9
			C446.5,318.3,445.7,316.8,445.2,315z"/>
	</g>
</g>
</svg>
