<?xml version="1.0" encoding="utf-8"?>
<!-- Generator: Adobe Illustrator 27.8.1, SVG Export Plug-In . SVG Version: 6.00 Build 0)  -->
<svg version="1.1" id="Layer_1" xmlns="http://www.w3.org/2000/svg" xmlns:xlink="http://www.w3.org/1999/xlink" x="0px" y="0px"
	 viewBox="0 0 500 114.5" style="enable-background:new 0 0 500 114.5;" xml:space="preserve">
<style type="text/css">
	.st0{fill:#F95812;}
</style>
<g>
	<g>
		<path class="st0" d="M445.9,3.8c4.3,0.1,8.5,0.5,12.6,1.5c3,0.7,5.9,1.4,8.8,2.3c1.6,0.5,3.1,1.2,4.3,2.4c1.3,1.3,1.6,2.9,1.4,4.6
			c-0.1,0.5-0.2,0.9-0.3,1.4c-0.5,2-2.1,2.6-4,3.1c-2.6,0.7-5.3,1.4-7.9,2.2c-2.1,0.6-4.3,1.1-6.4,1.7c-1.9,0.5-3.8,1.1-5.7,1.7
			c-0.5,0.2-0.9,0.4-1.4,0.6c-1.5,0.9-1.6,2.3-1.5,3.8c0.2,2.6,1,5.1,2,7.5c0.8,2,2.4,2.9,4.3,3.6c2.9,1.1,6,1.4,9,1.9
			c1.8,0.3,3.6,0.7,5.4,1c2.2,0.4,4.4,0.8,6.6,1.3c2.6,0.6,5.2,1.1,7.8,1.8c2.9,0.8,5.7,1.8,8.4,2.9c1.2,0.5,2.4,1.3,3.5,2.1
			s1.8,2,1.8,3.5c0,1.8,0.4,3.7-0.8,5.3c-0.9,1.2-2.1,1.9-3.4,2.6c-2.8,1.4-5.9,2.5-8.9,3.3s-6.1,1.4-9.1,2c-3.7,0.7-7.4,1.3-11,2
			c-1.9,0.4-3.9,0.7-5.8,1.1c-1.6,0.4-3.1,0.9-4.6,1.5c-1.9,0.8-2.9,2.4-3.5,4.3c-0.6,2-1.1,4.1-1.6,6.1c-0.4,1.7,0.4,3.7,1.7,4.2
			c1,0.4,2.1,0.8,3.2,1.1c2.1,0.6,4.2,1.3,6.3,1.9c2.5,0.7,5,1.4,7.6,2.1c1.7,0.5,3.5,0.9,5.2,1.3s2.5,1.5,2.9,3
			c0.3,1.2,0.5,2.3,0.2,3.6c-0.3,1.4-1.2,2.3-2.3,3.1c-1.9,1.3-4,1.9-6.2,2.4c-3.7,1-7.4,1.8-11.1,2.2c-3.8,0.5-7.7,0.7-11.5,0.4
			c-3.1-0.3-6.2-0.7-9.3-1.1c-1.6-0.2-3.1-0.4-4.7-0.5c-3-0.2-5.9-0.7-8.7-1.6c-3.7-1.1-6.9-3-9.3-6.2c-0.1-0.1-0.2-0.2-0.3-0.3
			c-1.7-0.7-2.3-2.3-2.9-3.7c-1.2-2.6-1.6-5.5-2-8.3c-0.4-2.7-0.8-5.3-1.1-8c-0.1-1-0.9-1.3-1.6-1.6c-0.1,0-0.2-0.1-0.3-0.1
			c-1.8-0.4-2.6-1.6-3.1-3.2c-0.9-3.1-1.5-6.3-2-9.5c-0.4-2.8-0.8-5.7-0.8-8.6c0-3.7,0.5-7.4,1.3-11.1c0.4-1.7,0.8-3.5,1.2-5.2
			c0.2-0.8,0.6-1.5,1-2.3c0.5-0.9,1.4-1.2,2.3-1.5c1.5-0.4,2.1-1.4,2.2-2.9c0.4-3.6,0.9-7.2,1.5-10.8c0.4-2.6,1.4-5,2.9-7.2
			c0.2-0.3,0.5-0.4,0.7-0.6c0.7-0.6,1.4-1.2,2.1-1.8c1.6-1.7,3.4-3.1,5.6-4c3.3-1.4,6.7-1.9,10.2-2.3c3.4-0.4,6.8-0.9,10.3-1.3
			C440,4.3,442.9,4.1,445.9,3.8z M428.1,94.8L428.1,94.8c0-0.7,0-1.4,0-2.1c0-0.4,0.1-0.6,0.6-0.6c1.3,0,2.6,0,3.9,0
			c1,0,1.2-0.2,1.2-1.2s0-2.1,0-3.1c0-0.9-0.3-1.2-1.2-1.2c-1.3,0-2.6,0-3.9,0c-0.5,0-0.7-0.2-0.7-0.7c0-1.3,0-2.6,0-3.9
			c0-0.8-0.4-1.2-1.2-1.2c-1.1,0-2.2,0-3.3,0c-0.8,0-1.2,0.4-1.2,1.2c0,1.3,0,2.6,0,3.9c0,0.6-0.2,0.7-0.7,0.7c-1.3,0-2.6,0-3.9,0
			c-0.9,0-1.2,0.3-1.2,1.2c0,1.1,0,2.1,0,3.2c0,0.9,0.2,1.2,1.2,1.2c1.3,0,2.6,0,3.9,0c0.6,0,0.8,0.2,0.8,0.8c0,1.3,0,2.6,0,3.9
			c0,0.7,0.3,1.1,0.9,1.1c1.2,0,2.5,0,3.7,0c0.6,0,1-0.4,1-1C428.1,96.1,428.1,95.5,428.1,94.8z M434.1,57c0.1-2.6-2-4.2-4-4.3
			c-2.2-0.1-4.3,1.9-4.3,4.1c0,2.3,1.8,4.2,4,4.2C432.2,61.1,434,59.4,434.1,57z M436.9,33.3c2.2,0.1,4.2-1.8,4.2-4.2
			c-0.1-2.3-1.8-4.2-4.2-4.2c-2.3,0-4.2,1.7-4.2,4.2C432.7,31.5,434.5,33.4,436.9,33.3z M433.1,36.6c0-2.3-1.8-4.1-4.1-4.1
			c-2.2,0-4,1.8-4,4.1s1.8,4.1,4,4.1C431.2,40.7,433.1,38.8,433.1,36.6z M420,15.2c0,1.8,1.4,3.3,3.2,3.3c1.8,0,3.3-1.5,3.3-3.3
			c0-1.7-1.6-3.3-3.3-3.3C421.4,11.9,420,13.4,420,15.2z M420,21.4c0-1.9-1.4-3.3-3.3-3.4c-1.7,0-3.3,1.6-3.3,3.3
			c0,1.7,1.5,3.3,3.3,3.3C418.5,24.6,420,23.2,420,21.4z M423.2,24.1c-1.8,0-3.2,1.4-3.2,3.3c0,1.8,1.4,3.3,3.2,3.3
			c1.8,0,3.3-1.5,3.3-3.3S425,24.1,423.2,24.1z M432.3,21.3c0-1.8-1.5-3.3-3.3-3.3s-3.3,1.5-3.3,3.3s1.5,3.3,3.3,3.3
			C430.9,24.6,432.3,23.1,432.3,21.3z M452.1,51.2c-3.2,0-5.8,2.6-5.8,5.7c0,3.3,2.6,5.8,5.8,5.9c3.1,0,5.8-2.7,5.8-5.9
			C457.9,53.8,455.3,51.2,452.1,51.2z"/>
		<path class="st0" d="M452,51.9c2.8,0,5.1,2.1,5.1,5.1c-0.1,2.8-2,5-5.1,5c-3,0-5-2.3-5-5C447,54.1,449.2,51.9,452,51.9z M452,52.3
			c-2.6,0-4.7,2.1-4.7,4.7c0,2.6,2.2,4.7,4.7,4.6c2.5,0,4.6-2.1,4.6-4.7C456.7,54.4,454.6,52.3,452,52.3z"/>
		<path class="st0" d="M452,53.1c2.1,0,3.8,1.8,3.8,3.8c0,2.1-1.7,3.7-3.8,3.7c-2,0-3.7-1.7-3.8-3.7C448.2,54.9,449.9,53.2,452,53.1
			z M452,53.6c-1.9,0-3.3,1.4-3.4,3.4c-0.1,1.8,1.6,3.4,3.4,3.4s3.4-1.6,3.4-3.4C455.4,55.1,453.8,53.6,452,53.6z"/>
		<path class="st0" d="M449.6,56.9c0-1.7,1.2-2.6,2.6-2.6c1.5,0,2.5,1.2,2.5,2.6c0,1.4-1.2,2.6-2.6,2.6
			C450.6,59.6,449.6,58.4,449.6,56.9z M454.4,57c0-1.1-1.1-2.2-2.2-2.2c-1.2,0-2.2,1.1-2.2,2.3c0,1.4,1,2.1,2.2,2.2
			C453.3,59.2,454.4,58.1,454.4,57z"/>
		<circle class="st0" cx="452.1" cy="57" r="0.6"/>
	</g>
	<g>
		<path class="st0" d="M205.9,3.8c4.3,0.1,8.5,0.5,12.6,1.5c3,0.7,5.9,1.4,8.8,2.3c1.6,0.5,3.1,1.2,4.3,2.4c1.3,1.3,1.6,2.9,1.4,4.6
			c-0.1,0.5-0.2,0.9-0.3,1.4c-0.5,2-2.1,2.6-4,3.1c-2.6,0.7-5.3,1.4-7.9,2.2c-2.1,0.6-4.3,1.1-6.4,1.7c-1.9,0.5-3.8,1.1-5.7,1.7
			c-0.5,0.2-0.9,0.4-1.4,0.6c-1.5,0.9-1.6,2.3-1.5,3.8c0.2,2.6,1,5.1,2,7.5c0.8,2,2.4,2.9,4.3,3.6c2.9,1.1,6,1.4,9,1.9
			c1.8,0.3,3.6,0.7,5.4,1c2.2,0.4,4.4,0.8,6.6,1.3c2.6,0.6,5.2,1.1,7.8,1.8c2.9,0.8,5.7,1.8,8.4,2.9c1.2,0.5,2.4,1.3,3.5,2.1
			s1.8,2,1.8,3.5c0,1.8,0.4,3.7-0.8,5.3c-0.9,1.2-2.1,1.9-3.4,2.6c-2.8,1.4-5.9,2.5-8.9,3.3s-6.1,1.4-9.1,2c-3.7,0.7-7.4,1.3-11,2
			c-1.9,0.4-3.9,0.7-5.8,1.1c-1.6,0.4-3.1,0.9-4.6,1.5c-1.9,0.8-2.9,2.4-3.5,4.3c-0.6,2-1.1,4.1-1.6,6.1c-0.4,1.7,0.4,3.7,1.7,4.2
			c1,0.4,2.1,0.8,3.2,1.1c2.1,0.6,4.2,1.3,6.3,1.9c2.5,0.7,5,1.4,7.6,2.1c1.7,0.5,3.5,0.9,5.2,1.3s2.5,1.5,2.9,3
			c0.3,1.2,0.5,2.3,0.2,3.6c-0.3,1.4-1.2,2.3-2.3,3.1c-1.9,1.3-4,1.9-6.2,2.4c-3.7,1-7.4,1.8-11.1,2.2c-3.8,0.5-7.7,0.7-11.5,0.4
			c-3.1-0.3-6.2-0.7-9.3-1.1c-1.6-0.2-3.1-0.4-4.7-0.5c-3-0.2-5.9-0.7-8.7-1.6c-3.7-1.1-6.9-3-9.3-6.2c-0.1-0.1-0.2-0.2-0.3-0.3
			c-1.7-0.7-2.3-2.3-2.9-3.7c-1.2-2.6-1.6-5.5-2-8.3c-0.4-2.7-0.8-5.3-1.1-8c-0.1-1-0.9-1.3-1.6-1.6c-0.1,0-0.2-0.1-0.3-0.1
			c-1.8-0.4-2.6-1.6-3.1-3.2c-0.9-3.1-1.5-6.3-2-9.5c-0.4-2.8-0.8-5.7-0.8-8.6c0-3.7,0.5-7.4,1.3-11.1c0.4-1.7,0.8-3.5,1.2-5.2
			c0.2-0.8,0.6-1.5,1-2.3c0.5-0.9,1.4-1.2,2.3-1.5c1.5-0.4,2.1-1.4,2.2-2.9c0.4-3.6,0.9-7.2,1.5-10.8c0.4-2.6,1.4-5,2.9-7.2
			c0.2-0.3,0.5-0.4,0.7-0.6c0.7-0.6,1.4-1.2,2.1-1.8c1.6-1.7,3.4-3.1,5.6-4c3.3-1.4,6.7-1.9,10.2-2.3c3.4-0.4,6.8-0.9,10.3-1.3
			C200,4.3,202.9,4.1,205.9,3.8z M188.1,94.8L188.1,94.8c0-0.7,0-1.4,0-2.1c0-0.4,0.1-0.6,0.6-0.6c1.3,0,2.6,0,3.9,0
			c1,0,1.2-0.2,1.2-1.2s0-2.1,0-3.1c0-0.9-0.3-1.2-1.2-1.2c-1.3,0-2.6,0-3.9,0c-0.5,0-0.7-0.2-0.7-0.7c0-1.3,0-2.6,0-3.9
			c0-0.8-0.4-1.2-1.2-1.2c-1.1,0-2.2,0-3.3,0c-0.8,0-1.2,0.4-1.2,1.2c0,1.3,0,2.6,0,3.9c0,0.6-0.2,0.7-0.7,0.7c-1.3,0-2.6,0-3.9,0
			c-0.9,0-1.2,0.3-1.2,1.2c0,1.1,0,2.1,0,3.2c0,0.9,0.2,1.2,1.2,1.2c1.3,0,2.6,0,3.9,0c0.6,0,0.8,0.2,0.8,0.8c0,1.3,0,2.6,0,3.9
			c0,0.7,0.3,1.1,0.9,1.1c1.2,0,2.5,0,3.7,0c0.6,0,1-0.4,1-1C188.1,96.1,188.1,95.5,188.1,94.8z M194,57c0.1-2.6-2-4.2-4-4.3
			c-2.2-0.1-4.3,1.9-4.3,4.1c0,2.3,1.8,4.2,4,4.2C192.2,61.1,194,59.4,194,57z M196.8,33.3c2.2,0.1,4.2-1.8,4.2-4.2
			c-0.1-2.3-1.8-4.2-4.2-4.2c-2.3,0-4.2,1.7-4.2,4.2C192.7,31.5,194.4,33.4,196.8,33.3z M193.1,36.6c0-2.3-1.8-4.1-4.1-4.1
			c-2.2,0-4,1.8-4,4.1s1.8,4.1,4,4.1C191.2,40.7,193.1,38.8,193.1,36.6z M179.9,15.2c0,1.8,1.4,3.3,3.2,3.3s3.3-1.5,3.3-3.3
			c0-1.7-1.6-3.3-3.3-3.3S179.9,13.4,179.9,15.2z M180,21.4c0-1.9-1.4-3.3-3.3-3.4c-1.7,0-3.3,1.6-3.3,3.3c0,1.7,1.5,3.3,3.3,3.3
			C178.5,24.6,180,23.2,180,21.4z M183.2,24.1c-1.8,0-3.2,1.4-3.2,3.3c0,1.8,1.4,3.3,3.2,3.3s3.3-1.5,3.3-3.3S185,24.1,183.2,24.1z
			 M192.3,21.3c0-1.8-1.5-3.3-3.3-3.3s-3.3,1.5-3.3,3.3s1.5,3.3,3.3,3.3C190.9,24.6,192.3,23.1,192.3,21.3z M212.1,51.2
			c-3.2,0-5.8,2.6-5.8,5.7c0,3.3,2.6,5.8,5.8,5.9c3.1,0,5.8-2.7,5.8-5.9C217.9,53.8,215.3,51.2,212.1,51.2z"/>
		<path class="st0" d="M212,51.9c2.8,0,5.1,2.1,5.1,5.1c-0.1,2.8-2,5-5.1,5c-3,0-5-2.3-5-5C206.9,54.1,209.2,51.9,212,51.9z
			 M212,52.3c-2.6,0-4.7,2.1-4.7,4.7c0,2.6,2.2,4.7,4.7,4.6c2.5,0,4.6-2.1,4.6-4.7C216.6,54.4,214.6,52.3,212,52.3z"/>
		<path class="st0" d="M212,53.1c2.1,0,3.8,1.8,3.8,3.8c0,2.1-1.7,3.7-3.8,3.7c-2,0-3.7-1.7-3.8-3.7C208.2,54.9,209.9,53.2,212,53.1
			z M212,53.6c-1.9,0-3.3,1.4-3.4,3.4c-0.1,1.8,1.6,3.4,3.4,3.4c1.8,0,3.4-1.6,3.4-3.4C215.4,55.1,213.8,53.6,212,53.6z"/>
		<path class="st0" d="M209.5,56.9c0-1.7,1.2-2.6,2.6-2.6c1.5,0,2.5,1.2,2.5,2.6c0,1.4-1.2,2.6-2.6,2.6
			C210.6,59.6,209.5,58.4,209.5,56.9z M214.3,57c0-1.1-1.1-2.2-2.2-2.2c-1.2,0-2.2,1.1-2.2,2.3c0,1.4,1,2.1,2.2,2.2
			C213.3,59.2,214.3,58.1,214.3,57z"/>
		<circle class="st0" cx="212.1" cy="57" r="0.6"/>
	</g>
	<path class="st0" d="M255.2,3.7c1.3,0,2,0,2.8,0c17.7,0,35.3,0,53,0c8.7,0,14.9,3,16.6,8.1c0.3,0.9,0.4,1.9,0.4,2.9
		c0,28.2,0,56.4,0,84.6c0,5.5-4.6,9.4-12.2,10.5c-1.5,0.2-3,0.3-4.5,0.3c-16.7,0-33.3,0-50,0c-0.7,0-1.3-0.1-2.3-0.1
		c0-0.7,0-1.3,0-1.9c0-32.8,0-65.7,0.1-98.5c0-1.9-0.4-3.4-2.6-4.7C256,4.6,255.8,4.3,255.2,3.7z M274.5,19.9c1.3,0.6,2,1.1,2.9,1.4
		c2.6,0.9,3.3,2.2,3.3,4.2c-0.1,22.3-0.1,44.6-0.1,66.9c0,1.4,0.6,1.7,2.7,1.7c6.7-0.1,13.3-0.1,20,0c2.2,0,3-0.3,2.9-1.8
		c-0.1-23.5-0.1-47-0.1-70.6c0-0.6,0-1.1,0-1.8C295.6,19.9,285.4,19.9,274.5,19.9z"/>
	<path class="st0" d="M151.1,109.8c-2.9,0-5.7,0-8.5,0c-3.5,0-7-0.1-10.5,0c-2,0.1-2.6-0.3-2.6-1.6c0.1-11.7,0-23.4,0-35.1
		c0-2.8,0-5.5,0-8.4c-10.5,0-20.8,0-31.7,0c1.9,0.9,3.5,1.6,4.8,2.4c0.7,0.4,1.3,1.1,1.3,1.7c0.1,13.3,0,26.5,0.1,39.8
		c0,1.1-0.6,1.3-2.1,1.3c-5.6,0-11.2-0.1-16.8,0c-2.4,0.1-2.9-0.5-2.9-1.9c0.1-31.3,0-62.6,0-93.9c0-1,0-2,0-3.1c0-2.6,1-5.5-4-7.2
		c0.2-0.1,0.4-0.2,0.6-0.3c0.6,0,1.2-0.1,1.8-0.1c7,0,13.9,0,20.9,0c2,0,2.4,0.4,2.4,1.6c-0.1,13.8,0,27.7,0,41.5c0,0.6,0,1.2,0,2
		c8.6,0,16.9,0,25.4,0c0-0.7,0.1-1.3,0.1-1.9c0-13.7,0-27.5,0-41.2c0-1.9,0-1.9,2.9-1.9c5.3,0,10.6,0,15.9,0c0.8,0,1.6,0,2.6,0
		C151.1,38.9,151.1,74.3,151.1,109.8z"/>
	<path class="st0" d="M5.5,77.5c7.1,0,14.1,0,21.4,0c0,5.5,0,11,0,16.5c8.7,0,17,0,25.6,0c0-3.3-0.4-6.4,0.1-9.6
		c0.7-4.5-1.7-7.9-6.2-11.4c-13.7-10.3-26.7-20.9-40-31.5c-0.6-0.5-1.1-1.3-1.1-2c-0.1-8.6-0.1-17.3,0-25.9c0-5.4,6-9.7,14.5-9.9
		c13.1-0.2,26.2-0.2,39.3,0c9,0.1,14.9,4.1,15.1,10c0.2,7.1,0.1,14.2,0,21.3c0,0.1-0.1,0.3-0.2,0.5c-7.1,0-14.1,0-21.4,0
		c0-5.3,0-10.5,0-15.9c-10.6,0-20.9,0-31.7,0c1.6,0.8,2.9,1.6,4.4,2.2c1.2,0.6,1.8,1.2,1.7,2.2c-0.1,3.4-0.1,6.7,0,10.1
		c0,0.9,0.5,1.9,1.4,2.6C43.2,48.6,58.1,60.3,73,72.1c0.7,0.5,1.2,1.4,1.2,2.1c0.1,8.5,0.1,17,0,25.4c0,5.9-6.1,10.3-15.2,10.4
		c-13,0.2-25.9,0.2-38.9,0c-8.3-0.1-14.6-4.1-14.8-9.4c-0.2-7.6,0-15.1,0-22.7C5.3,77.8,5.4,77.8,5.5,77.5z"/>
	<path class="st0" d="M334,3.8c8.7,0,16.9,0,25.4,0c0,30.1,0,60.1,0,90.3c12.2,0,24.2,0,36.4,0c0,1.7,0,3.2,0,4.7
		c0,3.4,0,6.7,0,10.1c0,0.9-0.5,1.3-2,1.3c-18.1,0-36.2,0-54.4,0c-1.3,0-2-0.2-1.9-1.2c0.1-0.4,0-0.9,0-1.3c0-32.8,0-65.5,0.1-98.3
		c0-1.8-0.4-3.3-2.6-4.6C334.8,4.6,334.6,4.3,334,3.8z"/>
</g>
</svg>
